<svg id="Layer_1" height="512" viewBox="0 0 32 32" width="512" xmlns="http://www.w3.org/2000/svg" data-name="Layer 1"><path d="m28 5h-24a3.0033 3.0033 0 0 0 -3 3v16a3.0033 3.0033 0 0 0 3 3h24a3.0033 3.0033 0 0 0 3-3v-16a3.0033 3.0033 0 0 0 -3-3zm1 19a1.0006 1.0006 0 0 1 -1 1h-24a1.0006 1.0006 0 0 1 -1-1v-16a1.0006 1.0006 0 0 1 1-1h24a1.0006 1.0006 0 0 1 1 1z"/><path d="m12.103 16.3878a4 4 0 1 0 -4.206 0 6.0042 6.0042 0 0 0 -3.897 5.6122 1 1 0 0 0 2 0 4 4 0 0 1 8 0 1 1 0 0 0 2 0 6.0042 6.0042 0 0 0 -3.897-5.6122zm-2.103-5.3878a2 2 0 1 1 -2 2 2.0027 2.0027 0 0 1 2-2z"/><path d="m26 10h-8a1 1 0 0 0 0 2h8a1 1 0 0 0 0-2z"/><path d="m26 14h-8a1 1 0 0 0 0 2h8a1 1 0 0 0 0-2z"/><path d="m26 18h-5a1 1 0 0 0 0 2h5a1 1 0 0 0 0-2z"/></svg>